<svg width="6" height="5" viewBox="0 0 6 5" fill="none" xmlns="http://www.w3.org/2000/svg">
<g opacity="0.7">
<path d="M2.2434 4.76469C2.21668 4.73866 2.10247 4.64041 2.00852 4.54889C1.41765 4.0123 0.450522 2.61252 0.155318 1.87988C0.107882 1.76861 0.00748513 1.48731 0.0010376 1.33701C0.0010376 1.19299 0.0341963 1.05571 0.101435 0.924702C0.195385 0.761394 0.343217 0.630389 0.517761 0.558605C0.638882 0.512394 1.00133 0.440611 1.00777 0.440611C1.4043 0.368827 2.04859 0.329346 2.76058 0.329346C3.43895 0.329346 4.05699 0.368827 4.4595 0.4276C4.46595 0.434329 4.91636 0.506113 5.07064 0.584627C5.35249 0.728643 5.52749 1.00995 5.52749 1.31099V1.33701C5.52058 1.53307 5.34558 1.94538 5.33913 1.94538C5.04346 2.63854 4.12377 4.00602 3.51264 4.55561C3.51264 4.55561 3.35559 4.7104 3.2575 4.7777C3.11658 4.88268 2.94203 4.93472 2.76749 4.93472C2.57268 4.93472 2.39123 4.87595 2.2434 4.76469Z" fill="#06152B"/>
</g>
</svg>
