<svg width="37" height="38" viewBox="0 0 37 38" fill="none" xmlns="http://www.w3.org/2000/svg">
<path d="M18.3955 10.0783V14.6649L24.5111 8.54938L18.3955 2.43384V7.02049C15.1516 7.02049 12.0406 8.30912 9.74683 10.6029C7.45306 12.8967 6.16443 16.0077 6.16443 19.2516C6.16443 21.6519 6.86772 23.8841 8.06025 25.7646L10.2924 23.5325C9.60442 22.2635 9.2222 20.7805 9.2222 19.2516C9.2222 16.8187 10.1887 14.4854 11.909 12.7651C13.6293 11.0447 15.9626 10.0783 18.3955 10.0783ZM28.7308 12.7385L26.4986 14.9707C27.1713 16.255 27.5688 17.7227 27.5688 19.2516C27.5688 21.6845 26.6024 24.0178 24.882 25.7381C23.1617 27.4584 20.8284 28.4249 18.3955 28.4249V23.8382L12.28 29.9538L18.3955 36.0693V31.4827C21.6394 31.4827 24.7504 30.194 27.0442 27.9003C29.338 25.6065 30.6266 22.4955 30.6266 19.2516C30.6266 16.8512 29.9233 14.6191 28.7308 12.7385Z" fill="white"/>
</svg>
