<svg width="20" height="20" viewBox="0 0 20 20" fill="none" xmlns="http://www.w3.org/2000/svg">
<path d="M8.33341 1.66663H11.6667C12.1088 1.66663 12.5327 1.84222 12.8453 2.15478C13.1578 2.46734 13.3334 2.89127 13.3334 3.33329V4.99996H16.6667C17.1088 4.99996 17.5327 5.17555 17.8453 5.48811C18.1578 5.80067 18.3334 6.2246 18.3334 6.66663V15.8333C18.3334 16.2753 18.1578 16.6992 17.8453 17.0118C17.5327 17.3244 17.1088 17.5 16.6667 17.5H3.33341C2.40841 17.5 1.66675 16.75 1.66675 15.8333V6.66663C1.66675 5.74163 2.40841 4.99996 3.33341 4.99996H6.66675V3.33329C6.66675 2.40829 7.40841 1.66663 8.33341 1.66663ZM11.6667 4.99996V3.33329H8.33341V4.99996H11.6667Z" fill="#B0B4B6"/>
</svg>
