<svg width="28" height="24" viewBox="0 0 28 24" fill="none" xmlns="http://www.w3.org/2000/svg">
<path fill-rule="evenodd" clip-rule="evenodd" d="M21.6741 4.20732C21.7281 4.29822 21.8226 4.36315 21.9441 4.36315C25.1841 4.36315 27.8301 6.90832 27.8301 10.0249V17.7383C27.8301 20.8548 25.1841 23.4 21.9441 23.4H6.71608C3.46258 23.4 0.830078 20.8548 0.830078 17.7383V10.0249C0.830078 6.90832 3.46258 4.36315 6.71608 4.36315C6.82408 4.36315 6.93208 4.31121 6.97258 4.20732L7.05358 4.0515C7.10013 3.95714 7.14791 3.86023 7.19641 3.76185C7.54177 3.06137 7.92383 2.28642 8.16058 1.83097C8.78158 0.662264 9.83458 0.0129856 11.1441 0H17.5026C18.8121 0.0129856 19.8786 0.662264 20.4996 1.83097C20.7122 2.24006 21.0362 2.89905 21.3485 3.53417C21.4129 3.66514 21.4768 3.7951 21.5391 3.92164L21.6741 4.20732ZM20.6885 9.19353C20.6885 9.84281 21.2285 10.3622 21.9035 10.3622C22.5785 10.3622 23.132 9.84281 23.132 9.19353C23.132 8.54425 22.5785 8.01184 21.9035 8.01184C21.2285 8.01184 20.6885 8.54425 20.6885 9.19353ZM11.9941 11.2065C12.6286 10.5961 13.4521 10.2715 14.3296 10.2715C15.2071 10.2715 16.0306 10.5961 16.6516 11.1935C17.2726 11.7908 17.6101 12.5829 17.6101 13.427C17.5966 15.1671 16.1386 16.5825 14.3296 16.5825C13.4521 16.5825 12.6286 16.2579 12.0076 15.6605C11.3866 15.0632 11.0491 14.2711 11.0491 13.427V13.414C11.0356 12.5959 11.3731 11.8038 11.9941 11.2065ZM18.0694 17.037C17.1109 17.9589 15.7879 18.5303 14.3299 18.5303C12.9124 18.5303 11.5894 17.9979 10.5769 17.037C9.57786 16.063 9.02436 14.7904 9.02436 13.427C9.01086 12.0765 9.56436 10.8039 10.5634 9.82996C11.5759 8.85604 12.9124 8.32363 14.3299 8.32363C15.7474 8.32363 17.0839 8.85604 18.0829 9.81697C19.0819 10.7909 19.6354 12.0765 19.6354 13.427C19.6219 14.8424 19.0279 16.115 18.0694 17.037Z" fill="#515B6B"/>
</svg>
