<svg width="37" height="38" viewBox="0 0 37 38" fill="none" xmlns="http://www.w3.org/2000/svg">
<path d="M26.2853 28.4216C27.0963 28.4216 27.874 28.7438 28.4475 29.3172C29.0209 29.8907 29.3431 30.6684 29.3431 31.4794C29.3431 32.2904 29.0209 33.0681 28.4475 33.6416C27.874 34.215 27.0963 34.5372 26.2853 34.5372C24.5882 34.5372 23.2275 33.1612 23.2275 31.4794C23.2275 29.7823 24.5882 28.4216 26.2853 28.4216ZM1.82312 3.95947H6.82258L8.25973 7.01724H30.8719C31.2774 7.01724 31.6663 7.17832 31.953 7.46504C32.2397 7.75177 32.4008 8.14064 32.4008 8.54613C32.4008 8.80604 32.3244 9.06595 32.2174 9.31057L26.7439 19.2025C26.2241 20.1351 25.2151 20.7772 24.0684 20.7772H12.6782L11.3022 23.2693L11.2563 23.4528C11.2563 23.5541 11.2966 23.6514 11.3683 23.723C11.44 23.7947 11.5372 23.835 11.6386 23.835H29.3431V26.8928H10.9964C9.29937 26.8928 7.93866 25.5168 7.93866 23.835C7.93866 23.2999 8.07626 22.7953 8.30559 22.3673L10.3849 18.6215L4.88089 7.01724H1.82312V3.95947ZM10.9964 28.4216C11.8074 28.4216 12.5852 28.7438 13.1586 29.3172C13.732 29.8907 14.0542 30.6684 14.0542 31.4794C14.0542 32.2904 13.732 33.0681 13.1586 33.6416C12.5852 34.215 11.8074 34.5372 10.9964 34.5372C9.29937 34.5372 7.93866 33.1612 7.93866 31.4794C7.93866 29.7823 9.29937 28.4216 10.9964 28.4216ZM24.7564 17.7194L29.0067 10.075H9.68159L13.2898 17.7194H24.7564Z" fill="white"/>
</svg>
