<svg width="24" height="24" viewBox="0 0 24 24" fill="none" xmlns="http://www.w3.org/2000/svg">
<path d="M7.425 9.47506L11.15 3.40006C11.25 3.23339 11.375 3.11239 11.525 3.03706C11.675 2.96172 11.8333 2.92439 12 2.92506C12.1667 2.92506 12.325 2.96272 12.475 3.03806C12.625 3.11339 12.75 3.23406 12.85 3.40006L16.575 9.47506C16.675 9.64172 16.725 9.81672 16.725 10.0001C16.725 10.1834 16.6833 10.3501 16.6 10.5001C16.5167 10.6501 16.4 10.7711 16.25 10.8631C16.1 10.9551 15.925 11.0007 15.725 11.0001H8.275C8.075 11.0001 7.9 10.9544 7.75 10.8631C7.6 10.7717 7.48333 10.6507 7.4 10.5001C7.31667 10.3501 7.275 10.1834 7.275 10.0001C7.275 9.81672 7.325 9.64172 7.425 9.47506ZM17.5 22.0001C16.25 22.0001 15.1877 21.5627 14.313 20.6881C13.4383 19.8134 13.0007 18.7507 13 17.5001C13 16.2501 13.4377 15.1877 14.313 14.3131C15.1883 13.4384 16.2507 13.0007 17.5 13.0001C18.75 13.0001 19.8127 13.4377 20.688 14.3131C21.5633 15.1884 22.0007 16.2507 22 17.5001C22 18.7501 21.5627 19.8127 20.688 20.6881C19.8133 21.5634 18.7507 22.0007 17.5 22.0001ZM3 20.5001V14.5001C3 14.2167 3.096 13.9794 3.288 13.7881C3.48 13.5967 3.71733 13.5007 4 13.5001H10C10.2833 13.5001 10.521 13.5961 10.713 13.7881C10.905 13.9801 11.0007 14.2174 11 14.5001V20.5001C11 20.7834 10.904 21.0211 10.712 21.2131C10.52 21.4051 10.2827 21.5007 10 21.5001H4C3.71667 21.5001 3.47933 21.4041 3.288 21.2121C3.09667 21.0201 3.00067 20.7827 3 20.5001Z" fill="black"/>
</svg>
