<svg width="24" height="24" viewBox="0 0 24 24" fill="none" xmlns="http://www.w3.org/2000/svg">
<path d="M11 4.68V8.56C10.9992 9.04324 10.8555 9.51544 10.587 9.91722C10.3185 10.319 9.9372 10.6324 9.49103 10.818C9.19583 10.9398 8.87936 11.0016 8.56003 11H4.68003C4.03463 10.9974 3.41658 10.7391 2.96115 10.2818C2.50572 9.82451 2.25002 9.2054 2.25003 8.56V4.69C2.25002 4.0446 2.50572 3.42549 2.96115 2.96819C3.41658 2.51088 4.03463 2.25265 4.68003 2.25H8.56003C9.20543 2.24999 9.82454 2.50569 10.2818 2.96112C10.7391 3.41655 10.9974 4.03461 11 4.68ZM21.75 4.69V8.56C21.7516 8.87944 21.6896 9.19601 21.5677 9.49129C21.4458 9.78657 21.2665 10.0547 21.04 10.28C20.8166 10.5097 20.5491 10.6919 20.2535 10.8156C19.958 10.9393 19.6404 11.0021 19.32 11H15.44C14.9579 10.9994 14.4867 10.8565 14.0854 10.5894C13.6841 10.3222 13.3706 9.94255 13.184 9.498C13.0604 9.20083 12.9978 8.88184 13 8.56V4.69C12.9987 4.36969 13.0618 4.05239 13.1855 3.75692C13.3091 3.46146 13.4909 3.19385 13.72 2.97C13.9449 2.74221 14.2127 2.56128 14.5079 2.43769C14.8031 2.3141 15.12 2.25031 15.44 2.25H19.32C19.9654 2.25265 20.5835 2.51088 21.0389 2.96819C21.4943 3.42549 21.75 4.0446 21.75 4.69ZM11 15.45V19.32C10.9974 19.9654 10.7391 20.5835 10.2818 21.0389C9.82454 21.4943 9.20543 21.75 8.56003 21.75H4.68003C4.03563 21.7487 3.41768 21.4937 2.96003 21.04C2.7336 20.8147 2.55422 20.5466 2.43233 20.2513C2.31044 19.956 2.24847 19.6394 2.25003 19.32V15.45C2.24847 15.1306 2.31044 14.814 2.43233 14.5187C2.55422 14.2234 2.7336 13.9553 2.96003 13.73C3.41565 13.2708 4.03322 13.0087 4.68003 13H8.56003C9.20726 13.0053 9.82634 13.2654 10.2831 13.724C10.7398 14.1826 10.9974 14.8028 11 15.45ZM21.75 17.38C21.7481 18.2434 21.4903 19.087 21.0094 19.8041C20.5284 20.5212 19.8458 21.0797 19.0477 21.4093C18.2496 21.7388 17.3718 21.8245 16.525 21.6555C15.6783 21.4866 14.9005 21.0706 14.29 20.46C13.6794 19.8495 13.2634 19.0718 13.0945 18.225C12.9256 17.3782 13.0113 16.5004 13.3408 15.7023C13.6703 14.9042 14.2288 14.2216 14.946 13.7406C15.6631 13.2597 16.5066 13.002 17.37 13C18.2365 13.0024 19.0829 13.2606 19.8032 13.7422C20.5236 14.2237 21.0856 14.9072 21.419 15.707C21.639 16.237 21.751 16.806 21.75 17.38Z" fill="#15A8A0"/>
</svg>
