<svg width="23" height="22" viewBox="0 0 23 22" fill="none" xmlns="http://www.w3.org/2000/svg">
<path fill-rule="evenodd" clip-rule="evenodd" d="M15.7503 4.73994L12.8004 5.16136C12.3497 5.22574 11.9815 5.44056 11.7186 5.73743L4.8356 12.6204C4.13738 13.3186 4.13735 14.4506 4.8356 15.1489L7.3641 17.6774C8.06235 18.3756 9.19436 18.3756 9.89259 17.6774L16.7755 10.7944C17.0724 10.5315 17.2872 10.1633 17.3516 9.71261L17.773 6.7627C17.9416 5.58279 16.9302 4.57133 15.7503 4.73994ZM13.6853 8.82766C14.0344 9.17674 14.6005 9.17677 14.9496 8.82766C15.2987 8.47854 15.2987 7.9125 14.9496 7.56341C14.6005 7.21432 14.0344 7.21429 13.6853 7.56341C13.3362 7.91253 13.3362 8.47857 13.6853 8.82766Z" fill="white"/>
</svg>
