<svg width="24" height="24" viewBox="0 0 24 24" fill="none" xmlns="http://www.w3.org/2000/svg">
<g clip-path="url(#clip0_1975_410)">
<path fill-rule="evenodd" clip-rule="evenodd" d="M10.3169 0.697664L8.50886 2.50406C8.36287 2.65011 8.16497 2.73238 7.95846 2.73286H5.11366C3.79846 2.73286 2.73286 3.79846 2.73286 5.11366V7.95846C2.73246 8.16545 2.65021 8.36388 2.50406 8.51046L0.696064 10.3169C0.249748 10.7633 -0.000976563 11.3688 -0.000976562 12.0001C-0.000976563 12.6314 0.249748 13.2368 0.696064 13.6833L2.50406 15.4913C2.65011 15.6373 2.73238 15.8352 2.73286 16.0417V18.8865C2.73286 20.2017 3.79846 21.2673 5.11366 21.2673H7.95846C8.16545 21.2677 8.36388 21.3499 8.51046 21.4961L10.3169 23.3041C10.7633 23.7504 11.3688 24.0011 12.0001 24.0011C12.6314 24.0011 13.2368 23.7504 13.6833 23.3041L15.4913 21.4961C15.6373 21.35 15.8352 21.2677 16.0417 21.2673H18.8865C20.2017 21.2673 21.2673 20.2017 21.2673 18.8865V16.0417C21.2677 15.8347 21.3499 15.6362 21.4961 15.4897L23.3041 13.6833C23.7504 13.2368 24.0011 12.6314 24.0011 12.0001C24.0011 11.3688 23.7504 10.7633 23.3041 10.3169L21.4961 8.50886C21.35 8.36287 21.2677 8.16497 21.2673 7.95846V5.11366C21.2673 3.79846 20.2017 2.73286 18.8865 2.73286H16.0417C15.8346 2.73281 15.636 2.65051 15.4897 2.50406L13.6833 0.696064C13.2368 0.249748 12.6314 -0.000976563 12.0001 -0.000976562C11.3688 -0.000976563 10.7633 0.251348 10.3169 0.697664ZM7.43366 15.4321L15.4337 7.43206L16.5665 8.56486L8.56646 16.5649L7.43366 15.4321ZM8.00006 8.00006V9.60006H9.60006V8.00006H8.00006ZM14.4001 16.0001H16.0001V14.4001H14.4001V16.0001Z" fill="black"/>
</g>
<defs>
<clipPath id="clip0_1975_410">
<rect width="24" height="24" fill="white"/>
</clipPath>
</defs>
</svg>
