<svg width="15" height="16" viewBox="0 0 15 16" fill="none" xmlns="http://www.w3.org/2000/svg">
<path fill-rule="evenodd" clip-rule="evenodd" d="M10.2271 5.29765L7.84763 3.25837C7.73655 3.16098 7.5963 3.11116 7.45532 3.11108C7.35885 3.11103 7.26204 3.13428 7.17399 3.18151C7.13475 3.20251 7.09747 3.22815 7.063 3.25837L4.68357 5.29765C4.43365 5.51184 4.40469 5.88808 4.61888 6.13799C4.83307 6.38791 5.20931 6.41687 5.45922 6.20268L6.85931 5.00275V9.61833C6.85931 9.94747 7.12613 10.2143 7.45528 10.2143C7.78442 10.2143 8.05125 9.94747 8.05125 9.61833L8.05125 5.00268L9.45141 6.20268C9.70133 6.41687 10.0776 6.38791 10.2918 6.13799C10.5059 5.88808 10.477 5.51184 10.2271 5.29765ZM3.87944 9.0708C3.87944 8.74165 4.14627 8.47482 4.47541 8.47482H5.36937C5.69852 8.47482 5.96534 8.208 5.96534 7.87885C5.96534 7.54971 5.69852 7.28288 5.36937 7.28288H4.47541C3.48798 7.28288 2.6875 8.08336 2.6875 9.0708V10.8587C2.6875 11.8461 3.48798 12.6466 4.47541 12.6466H10.4351C11.4226 12.6466 12.223 11.8461 12.223 10.8587V9.0708C12.223 8.08336 11.4226 7.28288 10.4351 7.28288H9.54117C9.21202 7.28288 8.9452 7.54971 8.9452 7.87885C8.9452 8.208 9.21202 8.47482 9.54117 8.47482H10.4351C10.7643 8.47482 11.0311 8.74165 11.0311 9.0708V10.8587C11.0311 11.1879 10.7643 11.4547 10.4351 11.4547H4.47541C4.14627 11.4547 3.87944 11.1879 3.87944 10.8587V9.0708Z" fill="#0F3659"/>
</svg>
