<svg width="41" height="42" viewBox="0 0 41 42" fill="none" xmlns="http://www.w3.org/2000/svg">
<g filter="url(#filter0_d_18_6409)">
<path d="M36.1222 19.2518V31.4829C36.1222 32.2939 35.8001 33.0716 35.2266 33.6451C34.6532 34.2185 33.8754 34.5407 33.0644 34.5407H8.60228C7.79131 34.5407 7.01355 34.2185 6.44011 33.6451C5.86667 33.0716 5.54451 32.2939 5.54451 31.4829V19.2518C5.13902 19.2518 4.75015 19.0907 4.46343 18.804C4.1767 18.5173 4.01562 18.1284 4.01562 17.7229V13.1363C4.01562 12.3253 4.33778 11.5475 4.91123 10.9741C5.48467 10.4007 6.26242 10.0785 7.0734 10.0785H11.92C11.7518 9.60454 11.6601 9.08472 11.6601 8.54961C11.6601 7.33315 12.1433 6.16652 13.0035 5.30635C13.8636 4.44619 15.0303 3.96295 16.2467 3.96295C17.7756 3.96295 19.121 4.72739 19.9619 5.85877V5.84348L20.8334 7.02072L21.7048 5.84348V5.85877C22.5457 4.72739 23.8911 3.96295 25.42 3.96295C26.6365 3.96295 27.8031 4.44619 28.6633 5.30635C29.5234 6.16652 30.0067 7.33315 30.0067 8.54961C30.0067 9.08472 29.9149 9.60454 29.7468 10.0785H34.5933C35.4043 10.0785 36.1821 10.4007 36.7555 10.9741C37.3289 11.5475 37.6511 12.3253 37.6511 13.1363V17.7229C37.6511 18.1284 37.49 18.5173 37.2033 18.804C36.9166 19.0907 36.5277 19.2518 36.1222 19.2518ZM8.60228 31.4829H19.3045V19.2518H8.60228V31.4829ZM33.0644 31.4829V19.2518H22.3622V31.4829H33.0644ZM16.2467 7.02072C15.8412 7.02072 15.4523 7.1818 15.1656 7.46852C14.8789 7.75524 14.7178 8.14412 14.7178 8.54961C14.7178 8.95509 14.8789 9.34397 15.1656 9.63069C15.4523 9.91741 15.8412 10.0785 16.2467 10.0785C16.6522 10.0785 17.0411 9.91741 17.3278 9.63069C17.6145 9.34397 17.7756 8.95509 17.7756 8.54961C17.7756 8.14412 17.6145 7.75524 17.3278 7.46852C17.0411 7.1818 16.6522 7.02072 16.2467 7.02072ZM25.42 7.02072C25.0145 7.02072 24.6257 7.1818 24.3389 7.46852C24.0522 7.75524 23.8911 8.14412 23.8911 8.54961C23.8911 8.95509 24.0522 9.34397 24.3389 9.63069C24.6257 9.91741 25.0145 10.0785 25.42 10.0785C25.8255 10.0785 26.2144 9.91741 26.5011 9.63069C26.7878 9.34397 26.9489 8.95509 26.9489 8.54961C26.9489 8.14412 26.7878 7.75524 26.5011 7.46852C26.2144 7.1818 25.8255 7.02072 25.42 7.02072ZM7.0734 13.1363V16.194H19.3045V13.1363H7.0734ZM22.3622 13.1363V16.194H34.5933V13.1363H22.3622Z" fill="white"/>
</g>
<defs>
<filter id="filter0_d_18_6409" x="-0.848445" y="0.905212" width="43.3647" height="43.3647" filterUnits="userSpaceOnUse" color-interpolation-filters="sRGB">
<feFlood flood-opacity="0" result="BackgroundImageFix"/>
<feColorMatrix in="SourceAlpha" type="matrix" values="0 0 0 0 0 0 0 0 0 0 0 0 0 0 0 0 0 0 127 0" result="hardAlpha"/>
<feOffset dy="3.33575"/>
<feGaussianBlur stdDeviation="1.66787"/>
<feComposite in2="hardAlpha" operator="out"/>
<feColorMatrix type="matrix" values="0 0 0 0 0 0 0 0 0 0 0 0 0 0 0 0 0 0 0.25 0"/>
<feBlend mode="normal" in2="BackgroundImageFix" result="effect1_dropShadow_18_6409"/>
<feBlend mode="normal" in="SourceGraphic" in2="effect1_dropShadow_18_6409" result="shape"/>
</filter>
</defs>
</svg>
