<svg width="24" height="24" viewBox="0 0 24 24" fill="none" xmlns="http://www.w3.org/2000/svg">
<path d="M21.375 3H2.625C2.32663 3 2.04048 3.11853 1.8295 3.3295C1.61853 3.54048 1.5 3.82663 1.5 4.125V19.875C1.5 20.1734 1.61853 20.4595 1.8295 20.6705C2.04048 20.8815 2.32663 21 2.625 21H21.375C21.6734 21 21.9595 20.8815 22.1705 20.6705C22.3815 20.4595 22.5 20.1734 22.5 19.875V4.125C22.5 3.82663 22.3815 3.54048 22.1705 3.3295C21.9595 3.11853 21.6734 3 21.375 3ZM15.5447 6.00937C16.0053 5.96717 16.4677 6.06795 16.869 6.29798C17.2703 6.52801 17.5909 6.87612 17.7872 7.29491C17.9836 7.71371 18.0461 8.18284 17.9662 8.63842C17.8864 9.09401 17.668 9.51392 17.341 9.84098C17.0139 10.168 16.594 10.3864 16.1384 10.4662C15.6828 10.5461 15.2137 10.4836 14.7949 10.2872C14.3761 10.0909 14.028 9.77026 13.798 9.36898C13.5679 8.96771 13.4672 8.50529 13.5094 8.04469C13.5574 7.52107 13.7872 7.0308 14.159 6.659C14.5308 6.2872 15.0211 6.05735 15.5447 6.00937ZM3.5625 19.5C3.41332 19.5 3.27024 19.4407 3.16475 19.3352C3.05926 19.2298 3 19.0867 3 18.9375V14.8298L9.03 9.46875L13.5745 14.0039L8.07984 19.5H3.5625ZM21 18.9375C21 19.0867 20.9407 19.2298 20.8352 19.3352C20.7298 19.4407 20.5867 19.5 20.4375 19.5H10.2014L17.2106 12.4908L21 15.6488V18.9375Z" fill="black"/>
</svg>
