<svg width="22" height="23" viewBox="0 0 22 23" fill="none" xmlns="http://www.w3.org/2000/svg">
<path d="M13.8597 16.4223C11.7155 17.6862 9.06697 17.7383 6.87471 16.5598C4.89081 15.4756 4.16008 15.1848 3.32722 15.1416C3.19939 15.1409 3.07921 15.2025 3.00509 15.3066L2.08973 16.5716C1.48464 17.4086 1.40008 18.5143 1.87093 19.4335C2.34174 20.3528 3.28834 20.9302 4.32117 20.9284H12.1704C13.1416 20.937 14.0422 20.4221 14.5275 19.5809V16.7641C14.4832 16.6881 14.4347 16.6147 14.3822 16.5441C14.2672 16.3724 14.0388 16.3192 13.8597 16.4223Z" fill="black"/>
<path d="M5.49178 2.07141H10.9918C11.4257 2.07141 11.7775 1.71962 11.7775 1.28568C11.7775 0.851742 11.4257 0.5 10.9918 0.5H5.49178C5.05784 0.5 4.70605 0.851785 4.70605 1.28573C4.70605 1.71967 5.05784 2.07141 5.49178 2.07141Z" fill="black"/>
<path d="M18.4561 10.3215C18.8901 10.3215 19.2419 9.96967 19.2419 9.53573C19.2419 9.10178 18.8901 8.75 18.4561 8.75C18.0222 8.75 17.6704 9.10178 17.6704 9.53573C17.6704 9.96967 18.0222 10.3215 18.4561 10.3215Z" fill="black"/>
<path d="M9.81331 14.6427C10.2473 14.6427 10.599 14.291 10.599 13.857C10.599 13.4231 10.2473 13.0713 9.81331 13.0713C9.37937 13.0713 9.02759 13.4231 9.02759 13.857C9.02759 14.291 9.37937 14.6427 9.81331 14.6427Z" fill="black"/>
<path d="M7.84892 10.7142C8.06589 10.7142 8.24178 10.5383 8.24178 10.3213C8.24178 10.1044 8.06589 9.92847 7.84892 9.92847C7.63195 9.92847 7.45605 10.1044 7.45605 10.3213C7.45605 10.5383 7.63195 10.7142 7.84892 10.7142Z" fill="black"/>
<path d="M12.1704 21.7142H4.32117C2.99306 21.7149 1.77662 20.9712 1.17175 19.7888C0.566879 18.6065 0.675633 17.1848 1.45332 16.1082L2.36868 14.8432C2.59891 14.5221 2.9757 14.3389 3.37045 14.3561C4.41154 14.4111 5.29153 14.8 7.25185 15.8686C9.20619 16.916 11.5656 16.8668 13.4747 15.7389C13.7978 15.5571 14.1873 15.5368 14.5275 15.6839V14.1243L11.3454 9.91292C10.8627 9.24063 10.6018 8.4345 10.599 7.60684V2.85718H5.88471V7.6068C5.88265 8.43149 5.62308 9.235 5.14222 9.90501L0.81296 15.6525C-0.133466 16.9691 -0.263703 18.7046 0.475657 20.1477C1.21502 21.5909 2.69967 22.499 4.32117 22.5H12.1704C13.1996 22.5062 14.1962 22.1391 14.9754 21.4667C14.8397 21.222 14.7328 20.9622 14.6572 20.6928C13.9991 21.3535 13.1029 21.7216 12.1704 21.7142ZM11.3847 13.8571C11.3847 14.725 10.6811 15.4285 9.81329 15.4285C8.94545 15.4285 8.24188 14.725 8.24188 13.8571C8.24188 12.9893 8.94545 12.2857 9.81329 12.2857C10.6811 12.2857 11.3847 12.9893 11.3847 13.8571ZM9.02757 7.17861C9.24451 7.17861 9.42043 7.35449 9.42043 7.57148C9.42043 7.78842 9.24456 7.96434 9.02757 7.96434C8.81062 7.96434 8.6347 7.78847 8.6347 7.57148C8.6347 7.35449 8.81062 7.17861 9.02757 7.17861ZM7.84902 9.14288C8.49991 9.14288 9.02761 9.67053 9.02761 10.3215C9.02761 10.9724 8.49995 11.5001 7.84902 11.5001C7.19813 11.5001 6.67044 10.9724 6.67044 10.3215C6.67237 9.67135 7.19891 9.14481 7.84902 9.14288ZM6.67044 12.2857C6.88739 12.2857 7.0633 12.4616 7.0633 12.6786C7.0633 12.8955 6.88743 13.0715 6.67044 13.0715C6.45349 13.0715 6.27758 12.8956 6.27758 12.6786C6.27758 12.4616 6.45349 12.2857 6.67044 12.2857Z" fill="black"/>
<path d="M15.3132 19.75C15.3132 21.2687 16.5445 22.5 18.0632 22.5C19.582 22.5 20.8132 21.2687 20.8132 19.75V2.85718H15.3132V19.75ZM19.6346 6.39289C19.8516 6.39289 20.0275 6.56876 20.0275 6.78575C20.0275 7.00274 19.8516 7.17861 19.6346 7.17861C19.4177 7.17861 19.2418 7.00274 19.2418 6.78575C19.2418 6.56876 19.4177 6.39289 19.6346 6.39289ZM20.0275 9.53574C20.0275 10.4036 19.3239 11.1071 18.4561 11.1071C17.5882 11.1071 16.8847 10.4036 16.8847 9.53574C16.8847 8.6679 17.5882 7.96434 18.4561 7.96434C19.324 7.96429 20.0275 8.66786 20.0275 9.53574ZM17.2775 4.03576C17.9284 4.03576 18.4561 4.56342 18.4561 5.21435C18.4561 5.86528 17.9284 6.39293 17.2775 6.39293C16.6266 6.39293 16.0989 5.86528 16.0989 5.21435C16.1009 4.56423 16.6274 4.0377 17.2775 4.03576ZM16.099 12.2857C16.099 12.0688 16.2748 11.8929 16.4918 11.8929H19.6347C19.8516 11.8929 20.0275 12.0687 20.0275 12.2857V19.75C20.0275 20.8348 19.1481 21.7142 18.0633 21.7142C16.9784 21.7142 16.099 20.8348 16.099 19.75V12.2857Z" fill="black"/>
<path d="M18.0633 20.9285C18.7134 20.9265 19.2399 20.4 19.2419 19.7499V12.6785H16.8848V19.7499C16.8867 20.4 17.4132 20.9265 18.0633 20.9285Z" fill="black"/>
<path d="M21.2057 0.5H14.92C14.4861 0.5 14.1343 0.851785 14.1343 1.28573C14.1343 1.71967 14.4861 2.07145 14.92 2.07145H21.2057C21.6397 2.07145 21.9915 1.71967 21.9915 1.28573C21.9915 0.851785 21.6397 0.5 21.2057 0.5Z" fill="black"/>
<path d="M17.2771 5.60702C17.4941 5.60702 17.67 5.43112 17.67 5.21415C17.67 4.99718 17.4941 4.82129 17.2771 4.82129C17.0602 4.82129 16.8843 4.99718 16.8843 5.21415C16.8843 5.43112 17.0602 5.60702 17.2771 5.60702Z" fill="black"/>
</svg>
