<svg width="24" height="24" viewBox="0 0 24 24" fill="none" xmlns="http://www.w3.org/2000/svg">
<mask id="mask0_1975_393" style="mask-type:luminance" maskUnits="userSpaceOnUse" x="2" y="0" width="20" height="24">
<path d="M6.5 3.5C6.5 3.10218 6.65804 2.72064 6.93934 2.43934C7.22064 2.15804 7.60218 2 8 2H16C16.197 2 16.392 2.0388 16.574 2.11418C16.756 2.18956 16.9214 2.30005 17.0607 2.43934C17.1999 2.57863 17.3104 2.74399 17.3858 2.92597C17.4612 3.10796 17.5 3.30302 17.5 3.5C17.5 3.69698 17.4612 3.89204 17.3858 4.07403C17.3104 4.25601 17.1999 4.42137 17.0607 4.56066C16.9214 4.69995 16.756 4.81044 16.574 4.88582C16.392 4.9612 16.197 5 16 5H8C7.60218 5 7.22064 4.84196 6.93934 4.56066C6.65804 4.27936 6.5 3.89782 6.5 3.5ZM6.55 8.56C6.69053 8.38525 6.86844 8.24423 7.07066 8.14732C7.27288 8.05041 7.49426 8.00006 7.7185 8H16.2805C16.5049 7.99992 16.7265 8.05018 16.9289 8.1471C17.1313 8.24402 17.3094 8.38512 17.45 8.56L19.669 11.3215C19.8831 11.588 19.9997 11.9197 19.9995 12.2615V20.5C19.9995 20.8978 19.8415 21.2794 19.5602 21.5607C19.2789 21.842 18.8973 22 18.4995 22H5.5C5.10218 22 4.72064 21.842 4.43934 21.5607C4.15804 21.2794 4 20.8978 4 20.5V12.2615C3.99984 11.9197 4.11644 11.588 4.3305 11.3215L6.55 8.56Z" fill="white" stroke="white" stroke-width="4" stroke-linejoin="round"/>
<path d="M9 15H15M12 12V18" stroke="black" stroke-width="4" stroke-linecap="round" stroke-linejoin="round"/>
</mask>
<g mask="url(#mask0_1975_393)">
<path d="M0 0H24V24H0V0Z" fill="black"/>
</g>
</svg>
