<svg width="13" height="5" viewBox="0 0 13 5" fill="none" xmlns="http://www.w3.org/2000/svg">
<g opacity="0.3">
<path d="M12.4516 1.4042C11.8207 0.773269 10.7977 0.773269 10.1668 1.4042C9.53584 2.03514 9.53584 3.05809 10.1668 3.68903C10.7977 4.31997 11.8207 4.31997 12.4516 3.68903C13.0825 3.05812 13.0825 2.03517 12.4516 1.4042Z" fill="#030229"/>
<path d="M7.60492 1.4042C6.97399 0.773269 5.95103 0.773269 5.3201 1.4042C4.68916 2.03514 4.68916 3.05809 5.3201 3.68903C5.95103 4.31997 6.97399 4.31997 7.60492 3.68903C8.23586 3.05812 8.23586 2.03517 7.60492 1.4042Z" fill="#030229"/>
<path d="M2.75775 1.4042C2.12682 0.773269 1.10386 0.773269 0.472927 1.4042C-0.158009 2.03514 -0.158009 3.05809 0.472927 3.68903C1.10386 4.31997 2.12682 4.31997 2.75775 3.68903C3.38869 3.05812 3.38869 2.03517 2.75775 1.4042Z" fill="#030229"/>
</g>
</svg>
