<svg width="18" height="18" viewBox="0 0 18 18" fill="none" xmlns="http://www.w3.org/2000/svg">
<path d="M3.56225 15.0604C3.08472 15.0604 2.62675 14.8707 2.28908 14.533C1.95142 14.1954 1.76172 13.7374 1.76172 13.2599V10.6877C1.76172 10.483 1.84302 10.2867 1.98773 10.142C2.13244 9.99732 2.32872 9.91602 2.53337 9.91602C2.73803 9.91602 2.9343 9.99732 3.07902 10.142C3.22373 10.2867 3.30503 10.483 3.30503 10.6877V13.2599C3.30503 13.4018 3.42026 13.5171 3.56225 13.5171H14.3654C14.4336 13.5171 14.4991 13.49 14.5473 13.4417C14.5955 13.3935 14.6226 13.3281 14.6226 13.2599V10.6877C14.6226 10.483 14.7039 10.2867 14.8487 10.142C14.9934 9.99732 15.1896 9.91602 15.3943 9.91602C15.599 9.91602 15.7952 9.99732 15.9399 10.142C16.0847 10.2867 16.166 10.483 16.166 10.6877V13.2599C16.166 13.7374 15.9763 14.1954 15.6386 14.533C15.3009 14.8707 14.843 15.0604 14.3654 15.0604H3.56225Z" fill="black"/>
<path d="M8.19102 8.56706V2.71379C8.19102 2.50914 8.27232 2.31286 8.41703 2.16815C8.56174 2.02344 8.75802 1.94214 8.96267 1.94214C9.16733 1.94214 9.3636 2.02344 9.50831 2.16815C9.65303 2.31286 9.73433 2.50914 9.73433 2.71379V8.56706L11.7612 6.5412C11.8328 6.46959 11.9178 6.41279 12.0114 6.37404C12.105 6.33528 12.2052 6.31533 12.3065 6.31533C12.4078 6.31533 12.5081 6.33528 12.6016 6.37404C12.6952 6.41279 12.7802 6.46959 12.8518 6.5412C12.9234 6.61281 12.9802 6.69783 13.019 6.79139C13.0577 6.88496 13.0777 6.98524 13.0777 7.08651C13.0777 7.18778 13.0577 7.28806 13.019 7.38162C12.9802 7.47519 12.9234 7.5602 12.8518 7.63181L9.50797 10.9757C9.4364 11.0473 9.3514 11.1042 9.25783 11.143C9.16426 11.1818 9.06396 11.2018 8.96267 11.2018C8.86138 11.2018 8.76108 11.1818 8.66751 11.143C8.57394 11.1042 8.48894 11.0473 8.41737 10.9757L5.07353 7.63181C5.00192 7.5602 4.94511 7.47519 4.90636 7.38162C4.8676 7.28806 4.84766 7.18778 4.84766 7.08651C4.84766 6.98524 4.8676 6.88496 4.90636 6.79139C4.94511 6.69783 5.00192 6.61281 5.07353 6.5412C5.14514 6.46959 5.23015 6.41279 5.32372 6.37404C5.41728 6.33528 5.51756 6.31533 5.61883 6.31533C5.7201 6.31533 5.82038 6.33528 5.91395 6.37404C6.00751 6.41279 6.09252 6.46959 6.16413 6.5412L8.19102 8.56706Z" fill="black"/>
</svg>
