<svg width="22" height="22" viewBox="0 0 22 22" fill="none" xmlns="http://www.w3.org/2000/svg">
<path fill-rule="evenodd" clip-rule="evenodd" d="M3.83813 5.39663C3.83813 3.42175 5.43909 1.8208 7.41396 1.8208H12.7777V5.39663C12.7777 7.3715 14.3787 8.97245 16.3535 8.97245H18.1414V16.1241C18.1414 18.099 16.5405 19.6999 14.5656 19.6999H7.41396C5.43909 19.6999 3.83813 18.099 3.83813 16.1241V5.39663ZM7.41396 9.86641C6.92024 9.86641 6.52 10.2666 6.52 10.7604C6.52 11.2541 6.92024 11.6543 7.41396 11.6543H9.20187C9.69559 11.6543 10.0958 11.2541 10.0958 10.7604C10.0958 10.2666 9.69559 9.86641 9.20187 9.86641H7.41396ZM7.41396 13.4422C6.92024 13.4422 6.52 13.8425 6.52 14.3362C6.52 14.8299 6.92024 15.2302 7.41396 15.2302H10.9898C11.4835 15.2302 11.8837 14.8299 11.8837 14.3362C11.8837 13.8425 11.4835 13.4422 10.9898 13.4422H7.41396ZM15.1751 3.78642L15.0581 5.54223C15.0221 6.0819 15.4698 6.52965 16.0095 6.49367L17.7653 6.37662C18.5317 6.32553 18.8811 5.39561 18.338 4.85252L16.6992 3.21377C16.1561 2.67067 15.2262 3.02007 15.1751 3.78642Z" fill="white"/>
</svg>
