<svg width="19" height="24" viewBox="0 0 19 24" fill="none" xmlns="http://www.w3.org/2000/svg">
<path d="M12.4609 6.00228V5.26976C12.4609 4.96291 12.7105 4.71313 13.0175 4.71313H14.3066V6.55874H13.0175C12.7105 6.55874 12.4609 6.30913 12.4609 6.00228Z" fill="black"/>
<path d="M1.05139 1.05103C1.72922 0.3732 2.63025 0 3.58888 0H14.7845C15.743 0 16.6442 0.3732 17.322 1.05103C17.9998 1.72886 18.373 2.62989 18.373 3.58851V20.4115C18.373 21.3699 17.9998 22.2711 17.322 22.949C16.6442 23.6268 15.7432 24 14.7845 24H3.58888C2.63042 24 1.72922 23.6268 1.05139 22.949C0.373562 22.2711 0.000362396 21.3701 0.000362396 20.4115V3.58851C0.000362396 2.62989 0.373562 1.72886 1.05139 1.05103ZM10.9421 5.86937C10.723 5.70274 10.4105 5.74526 10.2439 5.96434L9.52699 6.90669L8.81008 5.96434C8.64345 5.74526 8.33093 5.70274 8.11185 5.86937C7.89276 6.036 7.85042 6.34851 8.01688 6.5676L8.90076 7.72971L8.02099 8.88617C7.85436 9.10526 7.89688 9.41777 8.11596 9.5844C8.20613 9.65297 8.31208 9.68606 8.41716 9.68606C8.5675 9.68606 8.71613 9.61834 8.81419 9.48943L9.52682 8.55257L10.2394 9.48943C10.3375 9.61834 10.4861 9.68606 10.6365 9.68606C10.7416 9.68606 10.8477 9.65297 10.9378 9.5844C11.1569 9.41777 11.1993 9.10526 11.0328 8.88617L10.153 7.72971L11.0369 6.5676C11.2036 6.34851 11.1612 6.03583 10.9421 5.86937ZM15.3034 4.21491C15.3034 3.93977 15.0804 3.71657 14.8051 3.71657H13.0178C12.1615 3.71657 11.4646 4.41326 11.4646 5.26971V6.00223C11.4646 6.66891 11.887 7.23891 12.4781 7.45851L11.5432 8.91909C11.3949 9.15086 11.4624 9.45909 11.6942 9.60737C11.7773 9.66069 11.8704 9.68606 11.9623 9.68606C12.1265 9.68606 12.2873 9.60497 12.3825 9.45634L13.5993 7.5552H14.3066V9.18771C14.3066 9.46286 14.5296 9.68606 14.8049 9.68606C15.0801 9.68606 15.3033 9.46303 15.3033 9.18771V4.21491H15.3034ZM3.52391 19.2168H14.8495C15.1246 19.2168 15.3478 18.9938 15.3478 18.7185C15.3478 18.4433 15.1248 18.2201 14.8495 18.2201H3.52408C3.24893 18.2201 3.02573 18.4431 3.02573 18.7185C3.02573 18.9938 3.24876 19.2168 3.52391 19.2168ZM3.52391 15.6305H14.8495C15.1246 15.6305 15.3478 15.4075 15.3478 15.1322C15.3478 14.857 15.1248 14.6338 14.8495 14.6338H3.52408C3.24893 14.6338 3.02573 14.8569 3.02573 15.1322C3.02573 15.4073 3.24876 15.6305 3.52391 15.6305ZM3.52391 12.0441H14.8495C15.1246 12.0441 15.3478 11.821 15.3478 11.5457C15.3478 11.2704 15.1248 11.0474 14.8495 11.0474H3.52408C3.24893 11.0474 3.02573 11.2704 3.02573 11.5457C3.02573 11.821 3.24876 12.0441 3.52391 12.0441ZM3.52391 8.148H7.53653C7.81168 8.148 8.03488 7.92497 8.03488 7.64966C8.03488 7.37451 7.81185 7.15131 7.53653 7.15131H3.52391C3.24876 7.15131 3.02556 7.37434 3.02556 7.64966C3.02573 7.92497 3.24876 8.148 3.52391 8.148ZM3.52391 5.04531H7.53653C7.81168 5.04531 8.03488 4.82229 8.03488 4.54697C8.03488 4.27183 7.81185 4.04863 7.53653 4.04863H3.52391C3.24876 4.04863 3.02556 4.27166 3.02556 4.54697C3.02573 4.82229 3.24876 5.04531 3.52391 5.04531Z" fill="#15A8A0"/>
</svg>
