<svg width="38" height="38" viewBox="0 0 38 38" fill="none" xmlns="http://www.w3.org/2000/svg">
<path d="M20.2706 4.00885V4.03943V7.0972C26.9824 7.9228 31.7372 14.023 30.9116 20.7349C30.2083 26.3 25.8357 30.7185 20.2706 31.3759V34.4337C28.6795 33.5928 34.795 26.1318 33.9541 17.723C33.2661 10.4607 27.5022 4.72743 20.2706 4.00885ZM17.2128 4.05472C14.2315 4.3452 11.3878 5.49187 9.06386 7.41826L11.2502 9.68101C12.9625 8.30502 15.0265 7.41826 17.2128 7.11249V4.05472ZM6.90813 9.57399C4.98174 11.8979 3.83507 14.7263 3.5293 17.723H6.58707C6.87756 15.5519 7.73373 13.4879 9.09444 11.7603L6.90813 9.57399ZM24.0928 13.9007L16.6318 21.3617L13.3906 18.1205L11.77 19.7411L16.6318 24.6029L25.7134 15.5214L24.0928 13.9007ZM3.54459 20.7807C3.85036 23.7773 5.0276 26.6058 6.92342 28.9297L9.09444 26.7434C7.74902 25.0157 6.87756 22.9517 6.60236 20.7807H3.54459ZM11.2502 28.9908L9.06386 31.0854C11.3725 33.0118 14.2162 34.2196 17.2128 34.5407V31.4829C15.0418 31.2077 12.9778 30.3363 11.2502 28.9908Z" fill="#CBCBCB"/>
</svg>
