<svg width="24" height="24" viewBox="0 0 24 24" fill="none" xmlns="http://www.w3.org/2000/svg">
<path d="M5.50006 20.0001C5.89788 20.0001 6.27941 20.1581 6.56072 20.4394C6.84202 20.7207 7.00006 21.1023 7.00006 21.5001C7.00006 21.8979 6.84202 22.2794 6.56072 22.5607C6.27941 22.842 5.89788 23.0001 5.50006 23.0001C5.10223 23.0001 4.7207 22.842 4.4394 22.5607C4.15809 22.2794 4.00006 21.8979 4.00006 21.5001C4.00006 21.1023 4.15809 20.7207 4.4394 20.4394C4.7207 20.1581 5.10223 20.0001 5.50006 20.0001ZM18.5001 20.0001C18.8979 20.0001 19.2794 20.1581 19.5607 20.4394C19.842 20.7207 20.0001 21.1023 20.0001 21.5001C20.0001 21.8979 19.842 22.2794 19.5607 22.5607C19.2794 22.842 18.8979 23.0001 18.5001 23.0001C18.1022 23.0001 17.7207 22.842 17.4394 22.5607C17.1581 22.2794 17.0001 21.8979 17.0001 21.5001C17.0001 21.1023 17.1581 20.7207 17.4394 20.4394C17.7207 20.1581 18.1022 20.0001 18.5001 20.0001ZM2.17206 1.75708L6.00006 5.58508V17.0001H20.0001V19.0001H5.00006C4.73484 19.0001 4.48049 18.8947 4.29295 18.7072C4.10541 18.5197 4.00006 18.2653 4.00006 18.0001V6.41308L0.758057 3.17208L2.17206 1.75708ZM16.0001 3.00008C16.2653 3.00008 16.5196 3.10544 16.7072 3.29297C16.8947 3.48051 17.0001 3.73486 17.0001 4.00008V6.00008H19.9941C20.5501 6.00008 21.0001 6.45608 21.0001 6.99508V15.0051C20.9994 15.1365 20.9729 15.2665 20.9219 15.3876C20.871 15.5088 20.7967 15.6187 20.7033 15.7111C20.6098 15.8035 20.4991 15.8766 20.3774 15.9262C20.2557 15.9758 20.1255 16.0009 19.9941 16.0001H8.00706C7.74213 15.9998 7.48795 15.8953 7.29949 15.7091C7.11104 15.5229 7.00347 15.27 7.00006 15.0051V6.99508C7.00071 6.86359 7.02729 6.73352 7.07828 6.61231C7.12926 6.4911 7.20365 6.38114 7.29719 6.28872C7.39072 6.1963 7.50157 6.12324 7.62338 6.07371C7.74519 6.02418 7.87557 5.99916 8.00706 6.00008H11.0001V4.00008C11.0001 3.73486 11.1054 3.48051 11.2929 3.29297C11.4805 3.10544 11.7348 3.00008 12.0001 3.00008H16.0001ZM11.0001 8.00008H10.0001V14.0001H11.0001V8.00008ZM18.0001 8.00008H17.0001V14.0001H18.0001V8.00008ZM15.0001 5.00008H13.0001V6.00008H15.0001V5.00008Z" fill="black"/>
</svg>
