<svg width="23" height="22" viewBox="0 0 23 22" fill="none" xmlns="http://www.w3.org/2000/svg">
<path fill-rule="evenodd" clip-rule="evenodd" d="M5.10725 2.71484C4.11981 2.71484 3.31934 3.51533 3.31934 4.50276V17.0181C3.31934 18.0056 4.11981 18.8061 5.10725 18.8061H17.6226C18.6101 18.8061 19.4106 18.0056 19.4106 17.0181V4.50276C19.4106 3.51533 18.6101 2.71484 17.6226 2.71484H5.10725ZM7.78912 11.6544C7.78912 11.1607 7.38888 10.7605 6.89516 10.7605C6.40144 10.7605 6.00121 11.1607 6.00121 11.6544V15.2302C6.00121 15.724 6.40144 16.1242 6.89516 16.1242C7.38888 16.1242 7.78912 15.724 7.78912 15.2302V11.6544ZM11.3649 8.07858C11.8587 8.07858 12.2589 8.4788 12.2589 8.97254V15.2302C12.2589 15.724 11.8587 16.1242 11.3649 16.1242C10.8712 16.1242 10.471 15.724 10.471 15.2302V8.97254C10.471 8.4788 10.8712 8.07858 11.3649 8.07858ZM16.7287 6.29067C16.7287 5.79693 16.3284 5.39671 15.8347 5.39671C15.341 5.39671 14.9408 5.79693 14.9408 6.29067V15.2302C14.9408 15.724 15.341 16.1242 15.8347 16.1242C16.3284 16.1242 16.7287 15.724 16.7287 15.2302V6.29067Z" fill="white"/>
</svg>
