<svg width="37" height="38" viewBox="0 0 37 38" fill="none" xmlns="http://www.w3.org/2000/svg">
<path d="M27.7264 29.1892C28.9954 29.1892 30.0197 28.1649 30.0197 26.8959C30.0197 25.6269 28.9954 24.6026 27.7264 24.6026C26.4574 24.6026 25.4331 25.6269 25.4331 26.8959C25.4331 28.1649 26.4574 29.1892 27.7264 29.1892ZM30.0197 15.4293H26.1975V19.2515H33.0163L30.0197 15.4293ZM9.37978 29.1892C10.6488 29.1892 11.6731 28.1649 11.6731 26.8959C11.6731 25.6269 10.6488 24.6026 9.37978 24.6026C8.1108 24.6026 7.08645 25.6269 7.08645 26.8959C7.08645 28.1649 8.1108 29.1892 9.37978 29.1892ZM30.7842 13.1359L35.3708 19.2515V26.8959H32.3131C32.3131 29.4338 30.2644 31.4826 27.7264 31.4826C25.1885 31.4826 23.1397 29.4338 23.1397 26.8959H13.9664C13.9664 29.4338 11.9177 31.4826 9.37978 31.4826C6.84183 31.4826 4.79312 29.4338 4.79312 26.8959H1.73535V10.0782C1.73535 8.38109 3.09606 7.02039 4.79312 7.02039H26.1975V13.1359H30.7842ZM4.79312 10.0782V23.8381H5.95507C6.79596 22.9055 8.01907 22.3092 9.37978 22.3092C10.7405 22.3092 11.9636 22.9055 12.8045 23.8381H23.1397V10.0782H4.79312ZM15.4953 11.607L20.8464 16.9581L15.4953 22.3092V18.487H7.85089V15.4293H15.4953V11.607Z" fill="#CBCBCB"/>
</svg>
