<svg width="24" height="24" viewBox="0 0 24 24" fill="none" xmlns="http://www.w3.org/2000/svg">
<g clip-path="url(#clip0_1975_372)">
<path d="M8.00006 10.7601H7.42006C6.62856 10.7315 5.83963 10.8659 5.10223 11.1549C4.36482 11.4439 3.69468 11.8813 3.13339 12.4401L2.97339 12.6268V18.1468H5.69339V15.0135L6.06006 14.6001L6.22672 14.4068C7.09467 13.5151 8.17524 12.859 9.36672 12.5001C8.77019 12.0462 8.29971 11.4472 8.00006 10.7601Z" fill="black"/>
<path d="M20.8933 12.4201C20.332 11.8613 19.6619 11.4239 18.9245 11.1349C18.1871 10.8459 17.3981 10.7115 16.6066 10.7401C16.3639 10.7408 16.1213 10.7541 15.88 10.7801C15.5747 11.4247 15.1171 11.9853 14.5466 12.4134C15.8186 12.7653 16.9709 13.4567 17.88 14.4134L18.0466 14.6001L18.4066 15.0134V18.1534H21.0333V12.6068L20.8933 12.4201Z" fill="black"/>
<path d="M7.39992 9.46011H7.60658C7.51056 8.63561 7.65523 7.80093 8.02314 7.05684C8.39104 6.31275 8.96645 5.69105 9.67992 5.26678C9.42129 4.87168 9.06449 4.55052 8.64445 4.33474C8.22441 4.11897 7.75554 4.01598 7.28374 4.03587C6.81194 4.05575 6.35339 4.19782 5.95299 4.44817C5.5526 4.69851 5.22408 5.04856 4.99962 5.46401C4.77515 5.87947 4.66243 6.3461 4.67249 6.81821C4.68256 7.29033 4.81506 7.75173 5.05702 8.15725C5.29898 8.56277 5.64211 8.89849 6.05281 9.13155C6.46351 9.36461 6.9277 9.48702 7.39992 9.48678V9.46011Z" fill="black"/>
<path d="M16.2866 8.96004C16.2947 9.11326 16.2947 9.26681 16.2866 9.42004C16.4145 9.44032 16.5437 9.45146 16.6732 9.45337H16.7999C17.27 9.4283 17.7257 9.28193 18.1225 9.02849C18.5192 8.77506 18.8436 8.4232 19.0641 8.00718C19.2845 7.59116 19.3935 7.12515 19.3803 6.65453C19.3672 6.1839 19.2324 5.72469 18.9891 5.32161C18.7459 4.91853 18.4023 4.58531 17.9921 4.35439C17.5818 4.12347 17.1187 4.00273 16.6479 4.00391C16.177 4.0051 15.7146 4.12817 15.3054 4.36115C14.8963 4.59413 14.5545 4.92907 14.3132 5.33337C14.9166 5.72733 15.4128 6.26491 15.7572 6.89788C16.1016 7.53086 16.2835 8.23943 16.2866 8.96004Z" fill="black"/>
<path d="M11.9134 11.9466C13.5592 11.9466 14.8934 10.6124 14.8934 8.96657C14.8934 7.32076 13.5592 5.98657 11.9134 5.98657C10.2675 5.98657 8.93335 7.32076 8.93335 8.96657C8.93335 10.6124 10.2675 11.9466 11.9134 11.9466Z" fill="black"/>
<path d="M12.0734 13.5333C11.2028 13.4982 10.334 13.6395 9.51944 13.9489C8.70485 14.2582 7.96126 14.7291 7.33341 15.3333L7.16675 15.52V19.74C7.16935 19.8774 7.19901 20.013 7.25402 20.139C7.30904 20.265 7.38834 20.379 7.4874 20.4743C7.58645 20.5696 7.70332 20.6445 7.83132 20.6947C7.95933 20.7449 8.09596 20.7693 8.23342 20.7667H15.8934C16.0309 20.7693 16.1675 20.7449 16.2955 20.6947C16.4235 20.6445 16.5404 20.5696 16.6394 20.4743C16.7385 20.379 16.8178 20.265 16.8728 20.139C16.9278 20.013 16.9575 19.8774 16.9601 19.74V15.5333L16.8001 15.3333C16.1763 14.7273 15.4353 14.255 14.6225 13.9455C13.8097 13.636 12.9423 13.4957 12.0734 13.5333Z" fill="black"/>
</g>
<defs>
<clipPath id="clip0_1975_372">
<rect width="24" height="24" fill="white"/>
</clipPath>
</defs>
</svg>
