<svg width="24" height="21" viewBox="0 0 24 21" fill="none" xmlns="http://www.w3.org/2000/svg">
<path fill-rule="evenodd" clip-rule="evenodd" d="M20.2551 0.5H3.38217C2.10622 0.5 1.33675 1.55495 1.05435 2.69472L0.0802298 6.62308C-0.544954 9.14618 2.62497 9.90477 4.6826 9.33091C5.82146 9.01352 6.82421 8.21208 6.81805 7.05534C6.81396 6.25988 8.06229 6.25391 8.06229 7.05534C8.06229 10.6434 15.5738 10.6434 15.5738 7.05534H15.5759C15.5759 6.28385 16.7853 6.22894 16.816 7.05534H16.8181C16.8058 8.2061 17.8157 9.01454 18.9535 9.33091C21.0112 9.9038 24.1822 9.14626 23.5559 6.62308L22.5818 2.69472C22.2994 1.55495 21.53 0.5 20.2551 0.5ZM14.1987 20.499L14.1895 14.9658L9.44694 14.9668L9.43978 20.498L14.1987 20.499ZM8.19541 20.499H3.97365C2.88904 20.499 2.01008 19.6347 2.01008 18.5797V10.6004C3.87235 10.9776 6.24101 10.5195 7.39619 9.00049C9.16534 11.6094 14.4708 11.6094 16.24 9.00049C17.3952 10.5195 19.765 10.9786 21.6261 10.6004V18.5797C21.6261 19.6357 20.7471 20.499 19.6625 20.499L15.4428 20.5V14.9888C15.4428 14.6465 15.2986 14.3361 15.0673 14.1105L15.0683 14.1095C14.8371 13.8839 14.5178 13.7442 14.1669 13.7442H9.47127C8.77138 13.7442 8.19531 14.3061 8.19531 14.9888L8.19541 20.499Z" fill="black"/>
</svg>
